custom-analysis
version=1
nRows=16
nColumns=42
inDegrees=no

This file contains tibia displacement and acting force.

Units are S.I. units (seconds, meters, Newtons, ...)
Angles are in degrees.

endheader
time	APT	SIT	knee_angle	aACL_R_force	pACL_R_force	aPCL_R_force	pPCL_R_force	aMCL_R_force	mMCL_R_force	pMCL_R_force	aLCL_R_force	mLCL_R_force	pLCL_R_force	aACL_R_length	pACL_R_length	aPCL_R_length	pPCL_R_length	aMCL_R_length	mMCL_R_length	pMCL_R_length	aLCL_R_length	mLCL_R_length	pLCL_R_length	aACL_R_strain	pACL_R_strain	aPCL_R_strain	pPCL_R_strain	aMCL_R_strain	mMCL_R_strain	pMCL_R_strain	aLCL_R_strain	mLCL_R_strain	pLCL_R_strain	femur_lat_meniscii_force_r	femur_lat_meniscii_torque_r	femur_med_meniscii_force_r	femur_med_meniscii_torque_r	femur_lat_tibia_force_r	femur_lat_tibia_torque_r	femur_med_tibia_force_r	femur_med_tibia_torque_r
      0.00000000	      0.00000000	      0.00000000	     30.00011112	      7.64937957	      0.67243103	    174.08315868	    146.18621272	      0.00000000	      0.00000000	      0.00000000	      0.00000000	      0.00000000	      0.00000000	      0.03271805	      0.02607625	      0.03270142	      0.03136611	      0.05762997	      0.05959056	      0.05857054	      0.05514707	      0.05179641	      0.04809519	      0.03193614	      0.00841322	      0.05165148	      0.04248583	     -0.00684221	     -0.00339395	     -0.03552665	     -0.01482986	     -0.08029662	     -0.08114818	     98.11124267	     28.31686177	      0.64021312	      0.03769051	      0.00000000	      0.00000000	      4.29141420	      0.11314594
      0.00100000	      0.00000847	      0.00005270	     30.00011112	    -19.45583799	    -27.06087030	    132.62098134	     52.75171000	      0.00000000	      0.00000000	      0.00000000	      0.00000000	      0.00000000	      0.00000000	      0.03268166	      0.02603969	      0.03265275	      0.03131723	      0.05757796	      0.05953841	      0.05851880	      0.05509310	      0.05174245	      0.04804119	      0.03078835	      0.00699933	      0.05008631	      0.04086137	     -0.00773843	     -0.00426621	     -0.03637861	     -0.01579397	     -0.08125470	     -0.08217982	    125.05886143	     36.33979666	      1.14338154	      0.06917132	      0.00000000	      0.00000000	     13.94217102	      0.35860986
      0.00363812	      0.00006561	      0.00043729	     30.00011112	    -40.81524342	      0.00000000	     56.10744419	    -38.42804311	      0.00000000	      0.00000000	      0.00000000	      0.00000000	      0.00000000	      0.00000000	      0.03240835	      0.02576453	      0.03230383	      0.03096683	      0.05720018	      0.05915960	      0.05814336	      0.05470299	      0.05135248	      0.04765120	      0.02216799	     -0.00364184	      0.03886525	      0.02921556	     -0.01424894	     -0.01060150	     -0.04256087	     -0.02276300	     -0.08817908	     -0.08963048	    168.48784537	     47.53527343	     11.70861945	      0.67201458	      0.00000000	      0.00000000	    224.34563150	      5.52797645
      0.00591601	      0.00012748	      0.00066371	     30.00011112	    -23.16170664	      0.00000000	     61.95048028	     29.39811266	      0.00000000	      0.00000000	      0.00000000	      0.00000000	      0.00000000	      0.00000000	      0.03219609	      0.02553398	      0.03211195	      0.03077629	      0.05699672	      0.05895490	      0.05794521	      0.05449003	      0.05114188	      0.04744241	      0.01547333	     -0.01255754	      0.03269478	      0.02288267	     -0.01775515	     -0.01402491	     -0.04582380	     -0.02656746	     -0.09191842	     -0.09361944	    139.52264211	     40.09668726	     23.59023447	      1.24954048	      0.00000000	      0.00000000	    379.76224269	      9.10296988
      0.00777636	      0.00021190	      0.00067298	     30.00011112	     -8.09264796	      0.00000000	     78.81311592	     76.52388068	      0.00000000	      0.00000000	      0.00000000	      0.00000000	      0.00000000	      0.00000000	      0.03211907	      0.02542356	      0.03210725	      0.03077607	      0.05702122	      0.05897753	      0.05797648	      0.05450241	      0.05115908	      0.04746229	      0.01304404	     -0.01682748	      0.03254355	      0.02287540	     -0.01733295	     -0.01364651	     -0.04530899	     -0.02634621	     -0.09161309	     -0.09323948	    118.60419156	     35.11696552	     22.72876388	      1.39463113	      0.00000000	      0.00000000	    298.28082199	      7.07127714
      0.00963670	      0.00033783	      0.00062755	     30.00011112	     -6.58849390	      0.00000000	     80.66889804	     75.93285172	      0.00000000	      0.00000000	      0.00000000	      0.00000000	      0.00000000	      0.00000000	      0.03208350	      0.02534458	      0.03213761	      0.03081289	      0.05710915	      0.05906260	      0.05807230	      0.05456965	      0.05123302	      0.04753923	      0.01192207	     -0.01988194	      0.03351985	      0.02409918	     -0.01581772	     -0.01222367	     -0.04373102	     -0.02514503	     -0.09030021	     -0.09176962	    118.16163158	     36.30892234	     20.45308038	      1.44146200	      0.00000000	      0.00000000	    185.18220777	      4.38075343
      0.01160351	      0.00049869	      0.00061925	     30.00011112	    -13.88324015	      0.00000000	     67.87293937	     46.40717237	      0.00000000	      0.00000000	      0.00000000	      0.00000000	      0.00000000	      0.00000000	      0.03202897	      0.02524141	      0.03212637	      0.03080919	      0.05716759	      0.05911739	      0.05813948	      0.05459762	      0.05126881	      0.04757819	      0.01020228	     -0.02387155	      0.03315842	      0.02397601	     -0.01481057	     -0.01130744	     -0.04262475	     -0.02464532	     -0.08966462	     -0.09102531	    118.91802638	     36.66341154	     21.72516812	      1.83522131	      0.00000000	      0.00000000	    123.93467445	      2.91146829
      0.01357031	      0.00066387	      0.00067169	     30.00011112	    -20.25833322	      0.00000000	     52.18957212	     20.50035659	      0.00000000	      0.00000000	      0.00000000	      0.00000000	      0.00000000	      0.00000000	      0.03193826	      0.02510374	      0.03206321	      0.03075353	      0.05716836	      0.05911437	      0.05814891	      0.05456242	      0.05124130	      0.04755386	      0.00734121	     -0.02919572	      0.03112735	      0.02212617	     -0.01479724	     -0.01135797	     -0.04246946	     -0.02527415	     -0.09015321	     -0.09149017	    117.55851205	     35.97438266	     29.56627919	      3.29659665	      0.00000000	      0.00000000	    118.19983216	      2.74759959
      0.01553712	      0.00081704	      0.00074862	     30.00011112	    -20.26820884	      0.00000000	     43.58721188	     14.14519737	      0.00000000	      0.00000000	      0.00000000	      0.00000000	      0.00000000	      0.00000000	      0.03183177	      0.02495336	      0.03198617	      0.03068383	      0.05714644	      0.05908887	      0.05813528	      0.05450213	      0.05118821	      0.04750406	      0.00398243	     -0.03501113	      0.02864959	      0.01980979	     -0.01517493	     -0.01178443	     -0.04269394	     -0.02635131	     -0.09109581	     -0.09244147	    122.32837787	     37.42575685	     42.95328195	      6.09741109	      0.00000000	      0.00000000	    138.49483620	      3.20048844
      0.01750393	      0.00095163	      0.00080394	     30.00011112	    -12.79816798	      0.00000000	     43.65303786	     24.53526997	      0.00000000	      0.00000000	      0.00000000	      0.00000000	      0.00000000	      0.00000000	      0.03174578	      0.02482791	      0.03193354	      0.03063834	      0.05714467	      0.05908390	      0.05814090	      0.05446131	      0.05115395	      0.04747298	      0.00127048	     -0.03986254	      0.02695707	      0.01829763	     -0.01520555	     -0.01186755	     -0.04260143	     -0.02708048	     -0.09170419	     -0.09303526	    125.97303874	     38.43567311	     59.29337536	     10.96431757	      0.00000000	      0.00000000	    159.20137535	      3.63835996
      0.01947073	      0.00106510	      0.00081619	     30.00011112	     -3.18786947	      0.00000000	     46.94939176	     36.65915088	      0.00000000	      0.00000000	      0.00000000	      0.00000000	      0.00000000	      0.00000000	      0.03170650	      0.02475648	      0.03191566	      0.03062695	      0.05717838	      0.05911497	      0.05818033	      0.05445556	      0.05115368	      0.04747522	      0.00003140	     -0.04262492	      0.02638226	      0.01791919	     -0.01462452	     -0.01134791	     -0.04195220	     -0.02718315	     -0.09170900	     -0.09299257	    124.55124630	     38.01494882	     68.24762512	     14.03020132	      0.00000000	      0.00000000	    153.87421168	      3.50272395
      0.02199444	      0.00117462	      0.00079761	     30.00011112	      1.79534559	      0.00000000	     47.14444681	     37.47619988	      0.00000000	      0.00000000	      0.00000000	      0.00000000	      0.00000000	      0.00000000	      0.03170679	      0.02472891	      0.03191419	      0.03063210	      0.05723967	      0.05917389	      0.05824613	      0.05446659	      0.05116955	      0.04749291	      0.00004062	     -0.04369105	      0.02633482	      0.01809043	     -0.01356832	     -0.01036255	     -0.04086870	     -0.02698623	     -0.09142721	     -0.09265454	    124.33974580	     37.46432305	     70.62351193	     15.13532068	      0.00000000	      0.00000000	    120.92031969	      2.76219316
      0.02451815	      0.00123446	      0.00079240	     30.00011112	     -0.40682826	      0.00000000	     42.70322313	     27.90032820	      0.00000000	      0.00000000	      0.00000000	      0.00000000	      0.00000000	      0.00000000	      0.03171293	      0.02472193	      0.03190019	      0.03062237	      0.05727058	      0.05920375	      0.05827893	      0.05445044	      0.05115550	      0.04747943	      0.00023437	     -0.04396101	      0.02588467	      0.01776702	     -0.01303564	     -0.00986305	     -0.04032847	     -0.02727467	     -0.09167662	     -0.09291205	    125.48326019	     37.19441632	     70.82778385	     15.10881981	      0.00000000	      0.00000000	    106.67707494	      2.45573592
      0.02704186	      0.00123902	      0.00080981	     30.00011112	      0.00000000	      0.00000000	     40.45833654	     25.45213300	      0.00000000	      0.00000000	      0.00000000	      0.00000000	      0.00000000	      0.00000000	      0.03170336	      0.02471180	      0.03187621	      0.03060039	      0.05726565	      0.05919914	      0.05827396	      0.05440530	      0.05110990	      0.04743368	     -0.00006752	     -0.04435243	      0.02511358	      0.01703643	     -0.01312064	     -0.00994024	     -0.04041037	     -0.02808102	     -0.09248634	     -0.09378623	    129.69642821	     37.71465698	     69.47788778	     14.34378909	      0.00000000	      0.00000000	    113.41272707	      2.63093930
      0.03002782	      0.00118316	      0.00082892	     30.00011112	      0.00000000	      0.00000000	     42.44091779	     31.75264451	      0.00000000	      0.00000000	      0.00000000	      0.00000000	      0.00000000	      0.00000000	      0.03168742	      0.02470728	      0.03186525	      0.03058948	      0.05724849	      0.05918377	      0.05825492	      0.05435289	      0.05105448	      0.04737759	     -0.00057020	     -0.04452731	      0.02476089	      0.01667396	     -0.01341635	     -0.01019730	     -0.04072394	     -0.02901739	     -0.09347038	     -0.09485771	    128.10906954	     36.64007638	     64.33546244	     12.41623944	      0.00000000	      0.00000000	    120.85881907	      2.83178280
      0.03301378	      0.00109026	      0.00083530	     30.00011112	      0.00000000	      0.00000000	     45.54713176	     37.57679567	      0.00000000	      0.00000000	      0.00000000	      0.00000000	      0.00000000	      0.00000000	      0.03167798	      0.02471661	      0.03187621	      0.03059897	      0.05723511	      0.05917297	      0.05823848	      0.05431645	      0.05101368	      0.04733586	     -0.00086809	     -0.04416648	      0.02511334	      0.01698936	     -0.01364689	     -0.01037796	     -0.04099455	     -0.02966824	     -0.09419487	     -0.09565497	    124.52376172	     35.29056404	     57.55594905	     10.18134951	      0.00000000	      0.00000000	    120.62060003	      2.85908597
